<mxfile host="app.diagrams.net" modified="2023-06-14T16:01:25.320Z" agent="Mozilla/5.0 (Windows NT 10.0; Win64; x64) AppleWebKit/537.36 (KHTML, like Gecko) Chrome/112.0.0.0 Safari/537.36 OPR/98.0.0.0" etag="yEjYdIzw_t3HLfldgNnQ" version="21.3.8" type="github">
  <diagram id="C5RBs43oDa-KdzZeNtuy" name="Page-1">
    <mxGraphModel dx="1441" dy="774" grid="1" gridSize="10" guides="1" tooltips="1" connect="1" arrows="1" fold="1" page="1" pageScale="1" pageWidth="1000" pageHeight="800" math="0" shadow="0">
      <root>
        <mxCell id="WIyWlLk6GJQsqaUBKTNV-0" />
        <mxCell id="WIyWlLk6GJQsqaUBKTNV-1" parent="WIyWlLk6GJQsqaUBKTNV-0" />
        <mxCell id="_hYiAkCmdEY_YNiWRyZj-0" value="Produit" style="swimlane;fontStyle=2;align=center;verticalAlign=top;childLayout=stackLayout;horizontal=1;startSize=26;horizontalStack=0;resizeParent=1;resizeLast=0;collapsible=1;marginBottom=0;rounded=0;shadow=0;strokeWidth=1;" parent="WIyWlLk6GJQsqaUBKTNV-1" vertex="1">
          <mxGeometry x="420" y="140" width="140" height="118" as="geometry">
            <mxRectangle x="230" y="140" width="160" height="26" as="alternateBounds" />
          </mxGeometry>
        </mxCell>
        <mxCell id="_hYiAkCmdEY_YNiWRyZj-1" value="+produitID : entier&#xa;+nom : chaîne&#xa;+prix : float&#xa;+prixPromotionnel : float&#xa;+stock : entier" style="text;align=left;verticalAlign=top;spacingLeft=4;spacingRight=4;overflow=hidden;rotatable=0;points=[[0,0.5],[1,0.5]];portConstraint=eastwest;" parent="_hYiAkCmdEY_YNiWRyZj-0" vertex="1">
          <mxGeometry y="26" width="140" height="84" as="geometry" />
        </mxCell>
        <mxCell id="_hYiAkCmdEY_YNiWRyZj-2" value="" style="line;html=1;strokeWidth=1;align=left;verticalAlign=middle;spacingTop=-1;spacingLeft=3;spacingRight=3;rotatable=0;labelPosition=right;points=[];portConstraint=eastwest;" parent="_hYiAkCmdEY_YNiWRyZj-0" vertex="1">
          <mxGeometry y="110" width="140" height="8" as="geometry" />
        </mxCell>
        <mxCell id="_hYiAkCmdEY_YNiWRyZj-7" value="Catégorie" style="swimlane;fontStyle=2;align=center;verticalAlign=top;childLayout=stackLayout;horizontal=1;startSize=26;horizontalStack=0;resizeParent=1;resizeLast=0;collapsible=1;marginBottom=0;rounded=0;shadow=0;strokeWidth=1;" parent="WIyWlLk6GJQsqaUBKTNV-1" vertex="1">
          <mxGeometry x="150" y="150" width="140" height="88" as="geometry">
            <mxRectangle x="230" y="140" width="160" height="26" as="alternateBounds" />
          </mxGeometry>
        </mxCell>
        <mxCell id="_hYiAkCmdEY_YNiWRyZj-8" value="+categorieID : entier&#xa;+nom : string&#xa;+tva : float" style="text;align=left;verticalAlign=top;spacingLeft=4;spacingRight=4;overflow=hidden;rotatable=0;points=[[0,0.5],[1,0.5]];portConstraint=eastwest;" parent="_hYiAkCmdEY_YNiWRyZj-7" vertex="1">
          <mxGeometry y="26" width="140" height="54" as="geometry" />
        </mxCell>
        <mxCell id="_hYiAkCmdEY_YNiWRyZj-9" value="" style="line;html=1;strokeWidth=1;align=left;verticalAlign=middle;spacingTop=-1;spacingLeft=3;spacingRight=3;rotatable=0;labelPosition=right;points=[];portConstraint=eastwest;" parent="_hYiAkCmdEY_YNiWRyZj-7" vertex="1">
          <mxGeometry y="80" width="140" height="8" as="geometry" />
        </mxCell>
        <mxCell id="_hYiAkCmdEY_YNiWRyZj-10" value="Client" style="swimlane;fontStyle=2;align=center;verticalAlign=top;childLayout=stackLayout;horizontal=1;startSize=26;horizontalStack=0;resizeParent=1;resizeLast=0;collapsible=1;marginBottom=0;rounded=0;shadow=0;strokeWidth=1;" parent="WIyWlLk6GJQsqaUBKTNV-1" vertex="1">
          <mxGeometry x="464" y="330" width="140" height="140" as="geometry">
            <mxRectangle x="230" y="140" width="160" height="26" as="alternateBounds" />
          </mxGeometry>
        </mxCell>
        <mxCell id="_hYiAkCmdEY_YNiWRyZj-11" value="+clientID : entier&#xa;+nom : string&#xa;+type : string&#xa;+adresse : string&#xa;" style="text;align=left;verticalAlign=top;spacingLeft=4;spacingRight=4;overflow=hidden;rotatable=0;points=[[0,0.5],[1,0.5]];portConstraint=eastwest;" parent="_hYiAkCmdEY_YNiWRyZj-10" vertex="1">
          <mxGeometry y="26" width="140" height="64" as="geometry" />
        </mxCell>
        <mxCell id="_hYiAkCmdEY_YNiWRyZj-12" value="" style="line;html=1;strokeWidth=1;align=left;verticalAlign=middle;spacingTop=-1;spacingLeft=3;spacingRight=3;rotatable=0;labelPosition=right;points=[];portConstraint=eastwest;" parent="_hYiAkCmdEY_YNiWRyZj-10" vertex="1">
          <mxGeometry y="90" width="140" height="8" as="geometry" />
        </mxCell>
        <mxCell id="_hYiAkCmdEY_YNiWRyZj-13" value="+Commander ()&#xa;+Payer ()" style="text;align=left;verticalAlign=top;spacingLeft=4;spacingRight=4;overflow=hidden;rotatable=0;points=[[0,0.5],[1,0.5]];portConstraint=eastwest;" parent="_hYiAkCmdEY_YNiWRyZj-10" vertex="1">
          <mxGeometry y="98" width="140" height="42" as="geometry" />
        </mxCell>
        <mxCell id="_hYiAkCmdEY_YNiWRyZj-14" style="edgeStyle=orthogonalEdgeStyle;rounded=0;orthogonalLoop=1;jettySize=auto;html=1;exitX=0.5;exitY=0;exitDx=0;exitDy=0;endArrow=none;endFill=0;" parent="WIyWlLk6GJQsqaUBKTNV-1" source="_hYiAkCmdEY_YNiWRyZj-16" edge="1">
          <mxGeometry relative="1" as="geometry">
            <mxPoint x="464" y="400" as="targetPoint" />
            <Array as="points">
              <mxPoint x="240" y="400" />
              <mxPoint x="464" y="400" />
            </Array>
          </mxGeometry>
        </mxCell>
        <mxCell id="_hYiAkCmdEY_YNiWRyZj-15" value="Livrées chez" style="edgeLabel;html=1;align=center;verticalAlign=middle;resizable=0;points=[];" parent="_hYiAkCmdEY_YNiWRyZj-14" vertex="1" connectable="0">
          <mxGeometry x="-0.5419" y="2" relative="1" as="geometry">
            <mxPoint as="offset" />
          </mxGeometry>
        </mxCell>
        <mxCell id="_hYiAkCmdEY_YNiWRyZj-16" value="Commande" style="swimlane;fontStyle=2;align=center;verticalAlign=top;childLayout=stackLayout;horizontal=1;startSize=26;horizontalStack=0;resizeParent=1;resizeLast=0;collapsible=1;marginBottom=0;rounded=0;shadow=0;strokeWidth=1;" parent="WIyWlLk6GJQsqaUBKTNV-1" vertex="1">
          <mxGeometry x="170" y="480" width="140" height="98" as="geometry">
            <mxRectangle x="230" y="140" width="160" height="26" as="alternateBounds" />
          </mxGeometry>
        </mxCell>
        <mxCell id="_hYiAkCmdEY_YNiWRyZj-17" value="+commandeID : entier&#xa;+clientID : entier&#xa;+prix : double&#xa;+date : date" style="text;align=left;verticalAlign=top;spacingLeft=4;spacingRight=4;overflow=hidden;rotatable=0;points=[[0,0.5],[1,0.5]];portConstraint=eastwest;" parent="_hYiAkCmdEY_YNiWRyZj-16" vertex="1">
          <mxGeometry y="26" width="140" height="64" as="geometry" />
        </mxCell>
        <mxCell id="_hYiAkCmdEY_YNiWRyZj-18" value="" style="line;html=1;strokeWidth=1;align=left;verticalAlign=middle;spacingTop=-1;spacingLeft=3;spacingRight=3;rotatable=0;labelPosition=right;points=[];portConstraint=eastwest;" parent="_hYiAkCmdEY_YNiWRyZj-16" vertex="1">
          <mxGeometry y="90" width="140" height="8" as="geometry" />
        </mxCell>
        <mxCell id="_hYiAkCmdEY_YNiWRyZj-23" value="Facture" style="swimlane;fontStyle=2;align=center;verticalAlign=top;childLayout=stackLayout;horizontal=1;startSize=26;horizontalStack=0;resizeParent=1;resizeLast=0;collapsible=1;marginBottom=0;rounded=0;shadow=0;strokeWidth=1;" parent="WIyWlLk6GJQsqaUBKTNV-1" vertex="1">
          <mxGeometry x="450" y="490" width="140" height="108" as="geometry">
            <mxRectangle x="230" y="140" width="160" height="26" as="alternateBounds" />
          </mxGeometry>
        </mxCell>
        <mxCell id="_hYiAkCmdEY_YNiWRyZj-24" value="+factureID : entier&#xa;+valeur : double&#xa;+état : booléen&#xa;+date : date" style="text;align=left;verticalAlign=top;spacingLeft=4;spacingRight=4;overflow=hidden;rotatable=0;points=[[0,0.5],[1,0.5]];portConstraint=eastwest;" parent="_hYiAkCmdEY_YNiWRyZj-23" vertex="1">
          <mxGeometry y="26" width="140" height="64" as="geometry" />
        </mxCell>
        <mxCell id="_hYiAkCmdEY_YNiWRyZj-25" value="" style="line;html=1;strokeWidth=1;align=left;verticalAlign=middle;spacingTop=-1;spacingLeft=3;spacingRight=3;rotatable=0;labelPosition=right;points=[];portConstraint=eastwest;" parent="_hYiAkCmdEY_YNiWRyZj-23" vertex="1">
          <mxGeometry y="90" width="140" height="18" as="geometry" />
        </mxCell>
        <mxCell id="_hYiAkCmdEY_YNiWRyZj-29" value="Comprend" style="edgeStyle=orthogonalEdgeStyle;rounded=0;orthogonalLoop=1;jettySize=auto;html=1;endArrow=none;endFill=0;" parent="WIyWlLk6GJQsqaUBKTNV-1" edge="1">
          <mxGeometry relative="1" as="geometry">
            <mxPoint x="290" y="198" as="sourcePoint" />
            <mxPoint x="420" y="199" as="targetPoint" />
          </mxGeometry>
        </mxCell>
        <mxCell id="_hYiAkCmdEY_YNiWRyZj-30" value="1...*" style="text;html=1;align=center;verticalAlign=middle;resizable=0;points=[];autosize=1;strokeColor=none;fillColor=none;" parent="WIyWlLk6GJQsqaUBKTNV-1" vertex="1">
          <mxGeometry x="380" y="173" width="40" height="30" as="geometry" />
        </mxCell>
        <mxCell id="_hYiAkCmdEY_YNiWRyZj-31" value="1" style="text;html=1;align=center;verticalAlign=middle;resizable=0;points=[];autosize=1;strokeColor=none;fillColor=none;" parent="WIyWlLk6GJQsqaUBKTNV-1" vertex="1">
          <mxGeometry x="290" y="173" width="30" height="30" as="geometry" />
        </mxCell>
        <mxCell id="_hYiAkCmdEY_YNiWRyZj-32" value="*" style="text;html=1;align=center;verticalAlign=middle;resizable=0;points=[];autosize=1;strokeColor=none;fillColor=none;" parent="WIyWlLk6GJQsqaUBKTNV-1" vertex="1">
          <mxGeometry x="430" y="490" width="30" height="30" as="geometry" />
        </mxCell>
        <mxCell id="_hYiAkCmdEY_YNiWRyZj-33" value="1" style="text;html=1;align=center;verticalAlign=middle;resizable=0;points=[];autosize=1;strokeColor=none;fillColor=none;" parent="WIyWlLk6GJQsqaUBKTNV-1" vertex="1">
          <mxGeometry x="420" y="530" width="30" height="30" as="geometry" />
        </mxCell>
        <mxCell id="_hYiAkCmdEY_YNiWRyZj-35" value="1" style="text;html=1;align=center;verticalAlign=middle;resizable=0;points=[];autosize=1;strokeColor=none;fillColor=none;" parent="WIyWlLk6GJQsqaUBKTNV-1" vertex="1">
          <mxGeometry x="440" y="420" width="30" height="30" as="geometry" />
        </mxCell>
        <mxCell id="_hYiAkCmdEY_YNiWRyZj-41" value="Possède" style="edgeStyle=orthogonalEdgeStyle;rounded=0;orthogonalLoop=1;jettySize=auto;html=1;exitX=-0.053;exitY=0.093;exitDx=0;exitDy=0;endArrow=none;endFill=0;entryX=0.867;entryY=0.093;entryDx=0;entryDy=0;entryPerimeter=0;exitPerimeter=0;" parent="WIyWlLk6GJQsqaUBKTNV-1" source="_hYiAkCmdEY_YNiWRyZj-42" target="_hYiAkCmdEY_YNiWRyZj-33" edge="1">
          <mxGeometry relative="1" as="geometry" />
        </mxCell>
        <mxCell id="_hYiAkCmdEY_YNiWRyZj-42" value="1" style="text;html=1;align=center;verticalAlign=middle;resizable=0;points=[];autosize=1;strokeColor=none;fillColor=none;" parent="WIyWlLk6GJQsqaUBKTNV-1" vertex="1">
          <mxGeometry x="310" y="530" width="30" height="30" as="geometry" />
        </mxCell>
        <mxCell id="_hYiAkCmdEY_YNiWRyZj-43" value="Paye" style="edgeStyle=orthogonalEdgeStyle;rounded=0;orthogonalLoop=1;jettySize=auto;html=1;exitX=0;exitY=0.5;exitDx=0;exitDy=0;entryX=0;entryY=0.25;entryDx=0;entryDy=0;endArrow=none;endFill=0;" parent="WIyWlLk6GJQsqaUBKTNV-1" source="_hYiAkCmdEY_YNiWRyZj-13" target="_hYiAkCmdEY_YNiWRyZj-23" edge="1">
          <mxGeometry relative="1" as="geometry" />
        </mxCell>
        <mxCell id="_hYiAkCmdEY_YNiWRyZj-46" value="1" style="text;html=1;align=center;verticalAlign=middle;resizable=0;points=[];autosize=1;strokeColor=none;fillColor=none;" parent="WIyWlLk6GJQsqaUBKTNV-1" vertex="1">
          <mxGeometry x="440" y="370" width="30" height="30" as="geometry" />
        </mxCell>
        <mxCell id="_hYiAkCmdEY_YNiWRyZj-47" value="*" style="text;html=1;align=center;verticalAlign=middle;resizable=0;points=[];autosize=1;strokeColor=none;fillColor=none;" parent="WIyWlLk6GJQsqaUBKTNV-1" vertex="1">
          <mxGeometry x="210" y="450" width="30" height="30" as="geometry" />
        </mxCell>
        <mxCell id="_hYiAkCmdEY_YNiWRyZj-58" style="edgeStyle=orthogonalEdgeStyle;rounded=0;orthogonalLoop=1;jettySize=auto;html=1;exitX=-0.001;exitY=0.122;exitDx=0;exitDy=0;entryX=1;entryY=0.688;entryDx=0;entryDy=0;entryPerimeter=0;endArrow=none;endFill=0;exitPerimeter=0;" parent="WIyWlLk6GJQsqaUBKTNV-1" source="_hYiAkCmdEY_YNiWRyZj-60" target="_hYiAkCmdEY_YNiWRyZj-1" edge="1">
          <mxGeometry relative="1" as="geometry">
            <Array as="points">
              <mxPoint x="720" y="224" />
              <mxPoint x="720" y="224" />
            </Array>
          </mxGeometry>
        </mxCell>
        <mxCell id="_hYiAkCmdEY_YNiWRyZj-60" value="GestionStock" style="swimlane;fontStyle=2;align=center;verticalAlign=top;childLayout=stackLayout;horizontal=1;startSize=26;horizontalStack=0;resizeParent=1;resizeLast=0;collapsible=1;marginBottom=0;rounded=0;shadow=0;strokeWidth=1;" parent="WIyWlLk6GJQsqaUBKTNV-1" vertex="1">
          <mxGeometry x="760" y="210" width="140" height="108" as="geometry">
            <mxRectangle x="230" y="140" width="160" height="26" as="alternateBounds" />
          </mxGeometry>
        </mxCell>
        <mxCell id="_hYiAkCmdEY_YNiWRyZj-61" value="+gestionID : entier&#xa;+produitID : entier&#xa;+dateInventaire : date&#xa;+qtAjoutée: entier&#xa;+qtSupprimée: entier" style="text;align=left;verticalAlign=top;spacingLeft=4;spacingRight=4;overflow=hidden;rotatable=0;points=[[0,0.5],[1,0.5]];portConstraint=eastwest;" parent="_hYiAkCmdEY_YNiWRyZj-60" vertex="1">
          <mxGeometry y="26" width="140" height="74" as="geometry" />
        </mxCell>
        <mxCell id="_hYiAkCmdEY_YNiWRyZj-62" value="" style="line;html=1;strokeWidth=1;align=left;verticalAlign=middle;spacingTop=-1;spacingLeft=3;spacingRight=3;rotatable=0;labelPosition=right;points=[];portConstraint=eastwest;" parent="_hYiAkCmdEY_YNiWRyZj-60" vertex="1">
          <mxGeometry y="100" width="140" height="8" as="geometry" />
        </mxCell>
        <mxCell id="_hYiAkCmdEY_YNiWRyZj-63" value="1" style="text;html=1;align=center;verticalAlign=middle;resizable=0;points=[];autosize=1;strokeColor=none;fillColor=none;" parent="WIyWlLk6GJQsqaUBKTNV-1" vertex="1">
          <mxGeometry x="549" y="200" width="30" height="30" as="geometry" />
        </mxCell>
        <mxCell id="_hYiAkCmdEY_YNiWRyZj-64" value="*" style="text;html=1;align=center;verticalAlign=middle;resizable=0;points=[];autosize=1;strokeColor=none;fillColor=none;" parent="WIyWlLk6GJQsqaUBKTNV-1" vertex="1">
          <mxGeometry x="732" y="200" width="30" height="30" as="geometry" />
        </mxCell>
        <mxCell id="_hYiAkCmdEY_YNiWRyZj-67" value="Code promotion" style="swimlane;fontStyle=2;align=center;verticalAlign=top;childLayout=stackLayout;horizontal=1;startSize=26;horizontalStack=0;resizeParent=1;resizeLast=0;collapsible=1;marginBottom=0;rounded=0;shadow=0;strokeWidth=1;" parent="WIyWlLk6GJQsqaUBKTNV-1" vertex="1">
          <mxGeometry x="170" y="660" width="140" height="118" as="geometry">
            <mxRectangle x="230" y="140" width="160" height="26" as="alternateBounds" />
          </mxGeometry>
        </mxCell>
        <mxCell id="_hYiAkCmdEY_YNiWRyZj-68" value="+promotionID : entier&#xa;+pourcentage : float&#xa;+code : string&#xa;+dateDebut : date&#xa;+dateFin : date" style="text;align=left;verticalAlign=top;spacingLeft=4;spacingRight=4;overflow=hidden;rotatable=0;points=[[0,0.5],[1,0.5]];portConstraint=eastwest;" parent="_hYiAkCmdEY_YNiWRyZj-67" vertex="1">
          <mxGeometry y="26" width="140" height="74" as="geometry" />
        </mxCell>
        <mxCell id="_hYiAkCmdEY_YNiWRyZj-69" value="" style="line;html=1;strokeWidth=1;align=left;verticalAlign=middle;spacingTop=-1;spacingLeft=3;spacingRight=3;rotatable=0;labelPosition=right;points=[];portConstraint=eastwest;" parent="_hYiAkCmdEY_YNiWRyZj-67" vertex="1">
          <mxGeometry y="100" width="140" height="18" as="geometry" />
        </mxCell>
        <mxCell id="_hYiAkCmdEY_YNiWRyZj-70" value="Concerne" style="edgeStyle=orthogonalEdgeStyle;rounded=0;orthogonalLoop=1;jettySize=auto;html=1;exitX=0;exitY=0.25;exitDx=0;exitDy=0;entryX=0.75;entryY=0;entryDx=0;entryDy=0;endArrow=none;endFill=0;" parent="WIyWlLk6GJQsqaUBKTNV-1" source="_hYiAkCmdEY_YNiWRyZj-71" target="_hYiAkCmdEY_YNiWRyZj-0" edge="1">
          <mxGeometry relative="1" as="geometry" />
        </mxCell>
        <mxCell id="_hYiAkCmdEY_YNiWRyZj-71" value="Avis" style="swimlane;fontStyle=2;align=center;verticalAlign=top;childLayout=stackLayout;horizontal=1;startSize=26;horizontalStack=0;resizeParent=1;resizeLast=0;collapsible=1;marginBottom=0;rounded=0;shadow=0;strokeWidth=1;" parent="WIyWlLk6GJQsqaUBKTNV-1" vertex="1">
          <mxGeometry x="600" y="70" width="140" height="118" as="geometry">
            <mxRectangle x="230" y="140" width="160" height="26" as="alternateBounds" />
          </mxGeometry>
        </mxCell>
        <mxCell id="_hYiAkCmdEY_YNiWRyZj-72" value="+avisID : entier&#xa;+utilisateur : string&#xa;+note : entier&#xa;+intitulé : string&#xa;+utilité : entier" style="text;align=left;verticalAlign=top;spacingLeft=4;spacingRight=4;overflow=hidden;rotatable=0;points=[[0,0.5],[1,0.5]];portConstraint=eastwest;" parent="_hYiAkCmdEY_YNiWRyZj-71" vertex="1">
          <mxGeometry y="26" width="140" height="84" as="geometry" />
        </mxCell>
        <mxCell id="_hYiAkCmdEY_YNiWRyZj-73" value="" style="line;html=1;strokeWidth=1;align=left;verticalAlign=middle;spacingTop=-1;spacingLeft=3;spacingRight=3;rotatable=0;labelPosition=right;points=[];portConstraint=eastwest;" parent="_hYiAkCmdEY_YNiWRyZj-71" vertex="1">
          <mxGeometry y="110" width="140" height="8" as="geometry" />
        </mxCell>
        <mxCell id="_hYiAkCmdEY_YNiWRyZj-74" style="edgeStyle=orthogonalEdgeStyle;rounded=0;orthogonalLoop=1;jettySize=auto;html=1;exitX=0;exitY=0.5;exitDx=0;exitDy=0;entryX=0.5;entryY=0;entryDx=0;entryDy=0;endArrow=none;endFill=0;" parent="WIyWlLk6GJQsqaUBKTNV-1" source="_hYiAkCmdEY_YNiWRyZj-68" target="_hYiAkCmdEY_YNiWRyZj-0" edge="1">
          <mxGeometry relative="1" as="geometry">
            <Array as="points">
              <mxPoint x="130" y="718" />
              <mxPoint x="130" y="120" />
              <mxPoint x="490" y="120" />
            </Array>
          </mxGeometry>
        </mxCell>
        <mxCell id="_hYiAkCmdEY_YNiWRyZj-75" value="Concerne" style="edgeLabel;html=1;align=center;verticalAlign=middle;resizable=0;points=[];" parent="_hYiAkCmdEY_YNiWRyZj-74" vertex="1" connectable="0">
          <mxGeometry x="0.5705" y="-1" relative="1" as="geometry">
            <mxPoint as="offset" />
          </mxGeometry>
        </mxCell>
        <mxCell id="_hYiAkCmdEY_YNiWRyZj-76" value="1..*" style="text;html=1;align=center;verticalAlign=middle;resizable=0;points=[];autosize=1;strokeColor=none;fillColor=none;" parent="WIyWlLk6GJQsqaUBKTNV-1" vertex="1">
          <mxGeometry x="454" y="119" width="40" height="30" as="geometry" />
        </mxCell>
        <mxCell id="_hYiAkCmdEY_YNiWRyZj-77" value="1" style="text;html=1;align=center;verticalAlign=middle;resizable=0;points=[];autosize=1;strokeColor=none;fillColor=none;" parent="WIyWlLk6GJQsqaUBKTNV-1" vertex="1">
          <mxGeometry x="135" y="690" width="30" height="30" as="geometry" />
        </mxCell>
        <mxCell id="_hYiAkCmdEY_YNiWRyZj-78" value="1" style="text;html=1;align=center;verticalAlign=middle;resizable=0;points=[];autosize=1;strokeColor=none;fillColor=none;" parent="WIyWlLk6GJQsqaUBKTNV-1" vertex="1">
          <mxGeometry x="519" y="119" width="30" height="30" as="geometry" />
        </mxCell>
        <mxCell id="_hYiAkCmdEY_YNiWRyZj-79" value="0..*" style="text;html=1;align=center;verticalAlign=middle;resizable=0;points=[];autosize=1;strokeColor=none;fillColor=none;" parent="WIyWlLk6GJQsqaUBKTNV-1" vertex="1">
          <mxGeometry x="564" y="70" width="40" height="30" as="geometry" />
        </mxCell>
        <mxCell id="_hYiAkCmdEY_YNiWRyZj-80" style="edgeStyle=orthogonalEdgeStyle;rounded=0;orthogonalLoop=1;jettySize=auto;html=1;exitX=0;exitY=0.5;exitDx=0;exitDy=0;endArrow=none;endFill=0;" parent="WIyWlLk6GJQsqaUBKTNV-1" source="_hYiAkCmdEY_YNiWRyZj-72" edge="1">
          <mxGeometry relative="1" as="geometry">
            <mxPoint x="580" y="330" as="targetPoint" />
            <Array as="points">
              <mxPoint x="580" y="143" />
              <mxPoint x="580" y="330" />
            </Array>
          </mxGeometry>
        </mxCell>
        <mxCell id="_hYiAkCmdEY_YNiWRyZj-81" value="est &lt;br&gt;posté&amp;nbsp;&lt;br&gt;par" style="edgeLabel;html=1;align=center;verticalAlign=middle;resizable=0;points=[];" parent="_hYiAkCmdEY_YNiWRyZj-80" vertex="1" connectable="0">
          <mxGeometry x="0.5185" relative="1" as="geometry">
            <mxPoint as="offset" />
          </mxGeometry>
        </mxCell>
        <mxCell id="_hYiAkCmdEY_YNiWRyZj-82" value="1" style="text;html=1;align=center;verticalAlign=middle;resizable=0;points=[];autosize=1;strokeColor=none;fillColor=none;" parent="WIyWlLk6GJQsqaUBKTNV-1" vertex="1">
          <mxGeometry x="560" y="300" width="30" height="30" as="geometry" />
        </mxCell>
        <mxCell id="_hYiAkCmdEY_YNiWRyZj-83" value="0..*" style="text;html=1;align=center;verticalAlign=middle;resizable=0;points=[];autosize=1;strokeColor=none;fillColor=none;" parent="WIyWlLk6GJQsqaUBKTNV-1" vertex="1">
          <mxGeometry x="564" y="120" width="40" height="30" as="geometry" />
        </mxCell>
        <mxCell id="_hYiAkCmdEY_YNiWRyZj-84" style="edgeStyle=orthogonalEdgeStyle;rounded=0;orthogonalLoop=1;jettySize=auto;html=1;exitX=0.5;exitY=1;exitDx=0;exitDy=0;entryX=0.5;entryY=1;entryDx=0;entryDy=0;endArrow=none;endFill=0;" parent="WIyWlLk6GJQsqaUBKTNV-1" source="_hYiAkCmdEY_YNiWRyZj-86" target="_hYiAkCmdEY_YNiWRyZj-89" edge="1">
          <mxGeometry relative="1" as="geometry" />
        </mxCell>
        <mxCell id="_hYiAkCmdEY_YNiWRyZj-85" value="répond" style="edgeLabel;html=1;align=center;verticalAlign=middle;resizable=0;points=[];" parent="_hYiAkCmdEY_YNiWRyZj-84" vertex="1" connectable="0">
          <mxGeometry x="-0.0081" y="-2" relative="1" as="geometry">
            <mxPoint as="offset" />
          </mxGeometry>
        </mxCell>
        <mxCell id="_hYiAkCmdEY_YNiWRyZj-86" value="Product manager" style="swimlane;fontStyle=2;align=center;verticalAlign=top;childLayout=stackLayout;horizontal=1;startSize=26;horizontalStack=0;resizeParent=1;resizeLast=0;collapsible=1;marginBottom=0;rounded=0;shadow=0;strokeWidth=1;" parent="WIyWlLk6GJQsqaUBKTNV-1" vertex="1">
          <mxGeometry x="404" y="660" width="140" height="78" as="geometry">
            <mxRectangle x="230" y="140" width="160" height="26" as="alternateBounds" />
          </mxGeometry>
        </mxCell>
        <mxCell id="_hYiAkCmdEY_YNiWRyZj-87" value="+pMID : entier&#xa;+nom : string&#xa;" style="text;align=left;verticalAlign=top;spacingLeft=4;spacingRight=4;overflow=hidden;rotatable=0;points=[[0,0.5],[1,0.5]];portConstraint=eastwest;" parent="_hYiAkCmdEY_YNiWRyZj-86" vertex="1">
          <mxGeometry y="26" width="140" height="34" as="geometry" />
        </mxCell>
        <mxCell id="_hYiAkCmdEY_YNiWRyZj-88" value="" style="line;html=1;strokeWidth=1;align=left;verticalAlign=middle;spacingTop=-1;spacingLeft=3;spacingRight=3;rotatable=0;labelPosition=right;points=[];portConstraint=eastwest;" parent="_hYiAkCmdEY_YNiWRyZj-86" vertex="1">
          <mxGeometry y="60" width="140" height="18" as="geometry" />
        </mxCell>
        <mxCell id="_hYiAkCmdEY_YNiWRyZj-89" value="Question" style="swimlane;fontStyle=2;align=center;verticalAlign=top;childLayout=stackLayout;horizontal=1;startSize=26;horizontalStack=0;resizeParent=1;resizeLast=0;collapsible=1;marginBottom=0;rounded=0;shadow=0;strokeWidth=1;" parent="WIyWlLk6GJQsqaUBKTNV-1" vertex="1">
          <mxGeometry x="732" y="386" width="140" height="98" as="geometry">
            <mxRectangle x="230" y="140" width="160" height="26" as="alternateBounds" />
          </mxGeometry>
        </mxCell>
        <mxCell id="_hYiAkCmdEY_YNiWRyZj-90" value="+questionID : entier&#xa;+répondu : boolean&#xa;+intitulé : string" style="text;align=left;verticalAlign=top;spacingLeft=4;spacingRight=4;overflow=hidden;rotatable=0;points=[[0,0.5],[1,0.5]];portConstraint=eastwest;" parent="_hYiAkCmdEY_YNiWRyZj-89" vertex="1">
          <mxGeometry y="26" width="140" height="54" as="geometry" />
        </mxCell>
        <mxCell id="_hYiAkCmdEY_YNiWRyZj-91" value="" style="line;html=1;strokeWidth=1;align=left;verticalAlign=middle;spacingTop=-1;spacingLeft=3;spacingRight=3;rotatable=0;labelPosition=right;points=[];portConstraint=eastwest;" parent="_hYiAkCmdEY_YNiWRyZj-89" vertex="1">
          <mxGeometry y="80" width="140" height="18" as="geometry" />
        </mxCell>
        <mxCell id="_hYiAkCmdEY_YNiWRyZj-92" style="edgeStyle=orthogonalEdgeStyle;rounded=0;orthogonalLoop=1;jettySize=auto;html=1;exitX=1;exitY=0.5;exitDx=0;exitDy=0;entryX=0.136;entryY=0.014;entryDx=0;entryDy=0;entryPerimeter=0;endArrow=none;endFill=0;" parent="WIyWlLk6GJQsqaUBKTNV-1" source="_hYiAkCmdEY_YNiWRyZj-11" target="_hYiAkCmdEY_YNiWRyZj-89" edge="1">
          <mxGeometry relative="1" as="geometry" />
        </mxCell>
        <mxCell id="_hYiAkCmdEY_YNiWRyZj-93" value="posé par" style="edgeLabel;html=1;align=center;verticalAlign=middle;resizable=0;points=[];" parent="_hYiAkCmdEY_YNiWRyZj-92" vertex="1" connectable="0">
          <mxGeometry x="0.2921" y="-4" relative="1" as="geometry">
            <mxPoint as="offset" />
          </mxGeometry>
        </mxCell>
        <mxCell id="_hYiAkCmdEY_YNiWRyZj-94" value="1" style="text;html=1;align=center;verticalAlign=middle;resizable=0;points=[];autosize=1;strokeColor=none;fillColor=none;" parent="WIyWlLk6GJQsqaUBKTNV-1" vertex="1">
          <mxGeometry x="595" y="420" width="30" height="30" as="geometry" />
        </mxCell>
        <mxCell id="_hYiAkCmdEY_YNiWRyZj-95" value="0..*" style="text;html=1;align=center;verticalAlign=middle;resizable=0;points=[];autosize=1;strokeColor=none;fillColor=none;" parent="WIyWlLk6GJQsqaUBKTNV-1" vertex="1">
          <mxGeometry x="700" y="420" width="40" height="30" as="geometry" />
        </mxCell>
        <mxCell id="_hYiAkCmdEY_YNiWRyZj-96" style="edgeStyle=orthogonalEdgeStyle;rounded=0;orthogonalLoop=1;jettySize=auto;html=1;exitX=1;exitY=0.5;exitDx=0;exitDy=0;entryX=0.591;entryY=-0.008;entryDx=0;entryDy=0;entryPerimeter=0;endArrow=none;endFill=0;" parent="WIyWlLk6GJQsqaUBKTNV-1" source="_hYiAkCmdEY_YNiWRyZj-90" target="_hYiAkCmdEY_YNiWRyZj-0" edge="1">
          <mxGeometry relative="1" as="geometry">
            <Array as="points">
              <mxPoint x="950" y="440" />
              <mxPoint x="950" y="40" />
              <mxPoint x="506" y="40" />
              <mxPoint x="506" y="139" />
            </Array>
          </mxGeometry>
        </mxCell>
        <mxCell id="_hYiAkCmdEY_YNiWRyZj-97" value="Concerne" style="edgeLabel;html=1;align=center;verticalAlign=middle;resizable=0;points=[];" parent="_hYiAkCmdEY_YNiWRyZj-96" vertex="1" connectable="0">
          <mxGeometry x="-0.1773" y="4" relative="1" as="geometry">
            <mxPoint as="offset" />
          </mxGeometry>
        </mxCell>
        <mxCell id="_hYiAkCmdEY_YNiWRyZj-98" value="1" style="text;html=1;align=center;verticalAlign=middle;resizable=0;points=[];autosize=1;strokeColor=none;fillColor=none;" parent="WIyWlLk6GJQsqaUBKTNV-1" vertex="1">
          <mxGeometry x="480" y="89" width="30" height="30" as="geometry" />
        </mxCell>
        <mxCell id="_hYiAkCmdEY_YNiWRyZj-99" value="0..*" style="text;html=1;align=center;verticalAlign=middle;resizable=0;points=[];autosize=1;strokeColor=none;fillColor=none;" parent="WIyWlLk6GJQsqaUBKTNV-1" vertex="1">
          <mxGeometry x="800" y="490" width="40" height="30" as="geometry" />
        </mxCell>
        <mxCell id="_hYiAkCmdEY_YNiWRyZj-102" value="0..*" style="text;html=1;align=center;verticalAlign=middle;resizable=0;points=[];autosize=1;strokeColor=none;fillColor=none;" parent="WIyWlLk6GJQsqaUBKTNV-1" vertex="1">
          <mxGeometry x="872" y="410" width="40" height="30" as="geometry" />
        </mxCell>
        <mxCell id="_hYiAkCmdEY_YNiWRyZj-103" value="1" style="text;html=1;align=center;verticalAlign=middle;resizable=0;points=[];autosize=1;strokeColor=none;fillColor=none;" parent="WIyWlLk6GJQsqaUBKTNV-1" vertex="1">
          <mxGeometry x="440" y="738" width="30" height="30" as="geometry" />
        </mxCell>
        <mxCell id="_hYiAkCmdEY_YNiWRyZj-104" value="0..*" style="text;html=1;align=center;verticalAlign=middle;resizable=0;points=[];autosize=1;strokeColor=none;fillColor=none;" parent="WIyWlLk6GJQsqaUBKTNV-1" vertex="1">
          <mxGeometry x="710" y="360" width="40" height="30" as="geometry" />
        </mxCell>
        <mxCell id="_hYiAkCmdEY_YNiWRyZj-105" value="1" style="text;html=1;align=center;verticalAlign=middle;resizable=0;points=[];autosize=1;strokeColor=none;fillColor=none;" parent="WIyWlLk6GJQsqaUBKTNV-1" vertex="1">
          <mxGeometry x="595" y="383" width="30" height="30" as="geometry" />
        </mxCell>
        <mxCell id="kuwGx31eZ84SZXg3bRzO-1" value="répond" style="edgeStyle=orthogonalEdgeStyle;rounded=0;orthogonalLoop=1;jettySize=auto;html=1;exitX=1;exitY=0.5;exitDx=0;exitDy=0;entryX=-0.013;entryY=0.704;entryDx=0;entryDy=0;entryPerimeter=0;endArrow=none;endFill=0;" edge="1" parent="WIyWlLk6GJQsqaUBKTNV-1" source="_hYiAkCmdEY_YNiWRyZj-13" target="_hYiAkCmdEY_YNiWRyZj-90">
          <mxGeometry relative="1" as="geometry" />
        </mxCell>
      </root>
    </mxGraphModel>
  </diagram>
</mxfile>
